<mxfile host="app.diagrams.net" modified="2022-12-13T15:04:22.585Z" agent="5.0 (Windows NT 10.0; Win64; x64) AppleWebKit/537.36 (KHTML, like Gecko) Chrome/107.0.0.0 Safari/537.36" etag="tKyc-Xl1-MOqQ5cVDt9h" version="20.6.2" type="github">
  <diagram name="登录" id="13e1069c-82ec-6db2-03f1-153e76fe0fe0">
    <mxGraphModel dx="2242" dy="361" grid="1" gridSize="10" guides="1" tooltips="1" connect="1" arrows="1" fold="1" page="1" pageScale="1" pageWidth="1100" pageHeight="850" background="none" math="0" shadow="0">
      <root>
        <mxCell id="0" />
        <mxCell id="1" parent="0" />
        <mxCell id="7baba1c4bc27f4b0-2" value=":Hall::Account" style="shape=umlLifeline;perimeter=lifelinePerimeter;whiteSpace=wrap;html=1;container=1;collapsible=0;recursiveResize=0;outlineConnect=0;rounded=1;shadow=0;comic=0;labelBackgroundColor=none;strokeWidth=1;fontFamily=Verdana;fontSize=12;align=center;" parent="1" vertex="1">
          <mxGeometry x="300" y="80" width="100" height="1000" as="geometry" />
        </mxCell>
        <mxCell id="7baba1c4bc27f4b0-10" value="" style="html=1;points=[];perimeter=orthogonalPerimeter;rounded=0;shadow=0;comic=0;labelBackgroundColor=none;strokeWidth=1;fontFamily=Verdana;fontSize=12;align=center;" parent="7baba1c4bc27f4b0-2" vertex="1">
          <mxGeometry x="45" y="160" width="10" height="300" as="geometry" />
        </mxCell>
        <mxCell id="OykxomiR9zNqhak6hdmw-15" value="保存激活码/更新状态" style="edgeStyle=orthogonalEdgeStyle;html=1;align=left;spacingLeft=2;endArrow=block;rounded=0;" edge="1" target="7baba1c4bc27f4b0-10" parent="7baba1c4bc27f4b0-2">
          <mxGeometry relative="1" as="geometry">
            <mxPoint x="60" y="290" as="sourcePoint" />
            <Array as="points">
              <mxPoint x="54" y="290" />
              <mxPoint x="96" y="290" />
              <mxPoint x="96" y="335" />
            </Array>
            <mxPoint x="71" y="309" as="targetPoint" />
          </mxGeometry>
        </mxCell>
        <mxCell id="OykxomiR9zNqhak6hdmw-13" value="服务器状态判定&lt;br&gt;版本判定&lt;br&gt;是否可登录判定" style="html=1;verticalAlign=bottom;endArrow=block;rounded=0;entryX=1;entryY=0.291;entryDx=0;entryDy=0;entryPerimeter=0;" edge="1" parent="7baba1c4bc27f4b0-2" source="7baba1c4bc27f4b0-2" target="7baba1c4bc27f4b0-10">
          <mxGeometry x="0.3171" y="50" width="80" relative="1" as="geometry">
            <mxPoint x="90" y="220" as="sourcePoint" />
            <mxPoint x="135" y="220" as="targetPoint" />
            <Array as="points">
              <mxPoint x="90" y="220" />
              <mxPoint x="90" y="247" />
            </Array>
            <mxPoint x="50" y="-47" as="offset" />
          </mxGeometry>
        </mxCell>
        <mxCell id="OykxomiR9zNqhak6hdmw-22" value="" style="html=1;points=[];perimeter=orthogonalPerimeter;" vertex="1" parent="7baba1c4bc27f4b0-2">
          <mxGeometry x="45" y="500" width="10" height="180" as="geometry" />
        </mxCell>
        <mxCell id="7baba1c4bc27f4b0-8" value=":Client" style="shape=umlLifeline;perimeter=lifelinePerimeter;whiteSpace=wrap;html=1;container=1;collapsible=0;recursiveResize=0;outlineConnect=0;rounded=1;shadow=0;comic=0;labelBackgroundColor=none;strokeWidth=1;fontFamily=Verdana;fontSize=12;align=center;" parent="1" vertex="1">
          <mxGeometry x="100" y="80" width="100" height="1130" as="geometry" />
        </mxCell>
        <mxCell id="7baba1c4bc27f4b0-9" value="" style="html=1;points=[];perimeter=orthogonalPerimeter;rounded=0;shadow=0;comic=0;labelBackgroundColor=none;strokeWidth=1;fontFamily=Verdana;fontSize=12;align=center;" parent="7baba1c4bc27f4b0-8" vertex="1">
          <mxGeometry x="45" y="100" width="10" height="190" as="geometry" />
        </mxCell>
        <mxCell id="OykxomiR9zNqhak6hdmw-23" value="" style="html=1;points=[];perimeter=orthogonalPerimeter;" vertex="1" parent="7baba1c4bc27f4b0-8">
          <mxGeometry x="45" y="500" width="10" height="180" as="geometry" />
        </mxCell>
        <mxCell id="OykxomiR9zNqhak6hdmw-1" value=":UniSDK" style="shape=umlLifeline;perimeter=lifelinePerimeter;whiteSpace=wrap;html=1;container=1;collapsible=0;recursiveResize=0;outlineConnect=0;rounded=1;shadow=0;comic=0;labelBackgroundColor=none;strokeWidth=1;fontFamily=Verdana;fontSize=12;align=center;" vertex="1" parent="1">
          <mxGeometry x="-80" y="80" width="100" height="1420" as="geometry" />
        </mxCell>
        <mxCell id="OykxomiR9zNqhak6hdmw-2" value="" style="html=1;points=[];perimeter=orthogonalPerimeter;rounded=0;shadow=0;comic=0;labelBackgroundColor=none;strokeWidth=1;fontFamily=Verdana;fontSize=12;align=center;" vertex="1" parent="OykxomiR9zNqhak6hdmw-1">
          <mxGeometry x="45" y="100" width="10" height="160" as="geometry" />
        </mxCell>
        <mxCell id="OykxomiR9zNqhak6hdmw-4" value="Unisdk-Login" style="html=1;verticalAlign=bottom;endArrow=block;rounded=0;exitX=0.2;exitY=0.052;exitDx=0;exitDy=0;exitPerimeter=0;" edge="1" parent="1" source="7baba1c4bc27f4b0-9" target="OykxomiR9zNqhak6hdmw-2">
          <mxGeometry width="80" relative="1" as="geometry">
            <mxPoint x="90" y="200" as="sourcePoint" />
            <mxPoint x="590" y="390" as="targetPoint" />
          </mxGeometry>
        </mxCell>
        <mxCell id="OykxomiR9zNqhak6hdmw-5" value="sauth_json" style="html=1;verticalAlign=bottom;endArrow=open;dashed=1;endSize=8;rounded=0;exitX=1.3;exitY=0.425;exitDx=0;exitDy=0;exitPerimeter=0;" edge="1" parent="1" source="OykxomiR9zNqhak6hdmw-2" target="7baba1c4bc27f4b0-8">
          <mxGeometry relative="1" as="geometry">
            <mxPoint x="590" y="390" as="sourcePoint" />
            <mxPoint x="510" y="390" as="targetPoint" />
          </mxGeometry>
        </mxCell>
        <mxCell id="OykxomiR9zNqhak6hdmw-7" value="login" style="html=1;verticalAlign=bottom;endArrow=block;rounded=0;exitX=1.5;exitY=0.282;exitDx=0;exitDy=0;exitPerimeter=0;" edge="1" parent="1" target="7baba1c4bc27f4b0-10">
          <mxGeometry width="80" relative="1" as="geometry">
            <mxPoint x="160" y="279.0799999999999" as="sourcePoint" />
            <mxPoint x="300" y="280" as="targetPoint" />
          </mxGeometry>
        </mxCell>
        <mxCell id="OykxomiR9zNqhak6hdmw-16" value=":GasSDK" style="shape=umlLifeline;perimeter=lifelinePerimeter;whiteSpace=wrap;html=1;container=1;collapsible=0;recursiveResize=0;outlineConnect=0;" vertex="1" parent="1">
          <mxGeometry x="550" y="80" width="100" height="1110" as="geometry" />
        </mxCell>
        <mxCell id="OykxomiR9zNqhak6hdmw-17" value="/sauth" style="html=1;verticalAlign=bottom;endArrow=block;rounded=0;exitX=1.4;exitY=0.709;exitDx=0;exitDy=0;exitPerimeter=0;" edge="1" parent="1" source="7baba1c4bc27f4b0-10" target="OykxomiR9zNqhak6hdmw-16">
          <mxGeometry width="80" relative="1" as="geometry">
            <mxPoint x="370" y="490" as="sourcePoint" />
            <mxPoint x="590" y="460" as="targetPoint" />
            <Array as="points">
              <mxPoint x="540" y="453" />
            </Array>
          </mxGeometry>
        </mxCell>
        <mxCell id="OykxomiR9zNqhak6hdmw-19" value="sauth result" style="html=1;verticalAlign=bottom;endArrow=open;dashed=1;endSize=8;rounded=0;" edge="1" parent="1" target="7baba1c4bc27f4b0-2">
          <mxGeometry relative="1" as="geometry">
            <mxPoint x="600" y="510" as="sourcePoint" />
            <mxPoint x="520" y="510" as="targetPoint" />
          </mxGeometry>
        </mxCell>
        <mxCell id="OykxomiR9zNqhak6hdmw-24" value="return" style="html=1;verticalAlign=bottom;endArrow=open;dashed=1;endSize=8;rounded=0;" edge="1" parent="1" source="7baba1c4bc27f4b0-2">
          <mxGeometry relative="1" as="geometry">
            <mxPoint x="340" y="590" as="sourcePoint" />
            <mxPoint x="220" y="650" as="targetPoint" />
          </mxGeometry>
        </mxCell>
      </root>
    </mxGraphModel>
  </diagram>
</mxfile>
